<?xml version="1.0" standalone="no"?>
<!DOCTYPE svg PUBLIC "-//W3C//DTD SVG 20010904//EN"
 "http://www.w3.org/TR/2001/REC-SVG-20010904/DTD/svg10.dtd">
<svg version="1.0" xmlns="http://www.w3.org/2000/svg"
 width="840.000000pt" height="840.000000pt" viewBox="0 0 840.000000 840.000000"
 preserveAspectRatio="xMidYMid meet">
<metadata>
Created by potrace 1.11, written by Peter Selinger 2001-2013
</metadata>
<g transform="translate(0.000000,840.000000) scale(0.100000,-0.100000)"
fill="#000000" stroke="none">
<path d="M4174 6786 c-10 -7 -44 -27 -74 -44 -30 -16 -95 -53 -143 -81 -49
-28 -93 -51 -98 -51 -5 0 -9 -4 -9 -10 0 -5 -4 -10 -9 -10 -5 0 -76 -38 -157
-85 -81 -47 -149 -85 -151 -85 -2 0 -22 -12 -45 -26 -23 -14 -60 -36 -82 -48
-23 -13 -57 -32 -76 -43 -19 -11 -118 -67 -220 -125 -102 -58 -201 -115 -220
-127 -71 -43 -114 -60 -130 -51 -8 5 -22 4 -31 0 -8 -5 -21 -5 -28 0 -8 4 -26
4 -41 0 -15 -4 -33 -4 -39 0 -7 4 -29 4 -49 0 -20 -3 -48 -3 -62 0 -14 4 -34
3 -46 -1 -11 -4 -27 -4 -34 1 -7 5 -23 5 -35 0 -12 -5 -28 -4 -35 0 -8 5 -21
5 -30 0 -9 -5 -22 -5 -29 -1 -7 5 -29 5 -49 1 -20 -3 -48 -3 -62 0 -14 4 -34
3 -46 -1 -11 -4 -27 -4 -34 1 -7 5 -23 5 -35 0 -12 -5 -28 -4 -35 0 -8 5 -21
5 -30 0 -9 -5 -22 -5 -28 -1 -7 4 -35 5 -62 1 -27 -4 -55 -3 -61 1 -6 3 -26 3
-45 -1 -20 -5 -34 -4 -34 2 0 5 -4 6 -10 3 -5 -3 -44 -8 -86 -10 -42 -3 -88
-7 -103 -9 -14 -3 -48 -8 -76 -11 -182 -25 -478 -136 -643 -241 -29 -19 -57
-34 -62 -34 -6 0 -10 -3 -10 -8 0 -4 -18 -18 -40 -32 -22 -14 -40 -28 -40 -32
0 -5 -4 -8 -10 -8 -27 0 -258 -231 -333 -333 -177 -241 -281 -479 -337 -772
-19 -99 -21 -122 -25 -280 -3 -155 19 -392 40 -425 2 -4 7 -22 10 -41 12 -67
76 -246 126 -347 54 -111 126 -235 140 -240 5 -2 9 -8 9 -13 0 -31 239 -290
346 -375 211 -167 538 -318 779 -359 11 -2 48 -9 83 -15 90 -16 286 -25 377
-17 17 1 42 -1 57 -5 15 -3 30 -3 33 2 3 5 18 5 33 1 15 -5 36 -5 47 -1 11 4
32 4 47 -1 15 -4 30 -4 33 1 3 5 19 5 35 0 16 -5 32 -5 35 0 3 5 18 5 34 0 15
-4 34 -4 42 0 7 5 17 6 22 3 9 -5 81 -5 142 0 17 1 42 -1 58 -5 16 -4 27 -3
27 3 0 6 5 7 11 3 12 -7 99 -8 134 -1 11 2 32 1 46 -3 15 -4 32 -4 39 0 7 4
24 5 39 1 14 -4 37 -5 51 -1 14 4 37 3 52 -1 15 -4 30 -4 33 1 3 5 18 5 33 1
15 -5 36 -5 47 -1 11 4 32 4 47 -1 15 -4 30 -4 33 1 3 5 18 5 33 1 15 -3 43
-5 62 -3 19 1 46 4 60 5 14 1 37 -1 53 -5 16 -4 27 -3 27 3 0 6 5 7 11 3 6 -3
35 -6 65 -5 53 1 63 2 107 1 12 0 36 1 52 3 17 1 42 -1 58 -5 16 -4 27 -3 27
3 0 6 5 7 11 3 6 -3 35 -6 65 -5 30 1 64 2 77 2 12 1 33 1 47 0 14 -1 33 -1
43 -1 9 0 41 0 70 0 28 0 66 1 82 3 17 1 42 -1 56 -4 14 -4 33 -3 42 2 9 6 18
6 21 0 4 -5 6 -63 6 -128 0 -65 0 -215 1 -333 0 -204 0 -262 -2 -278 -7 -48
15 -66 45 -37 8 8 22 15 30 15 9 0 16 4 16 8 0 4 24 20 53 35 28 16 75 41 102
58 28 16 64 36 80 44 17 9 44 24 60 34 35 21 91 53 155 89 25 13 50 28 55 32
6 4 30 19 55 32 25 14 63 35 85 48 22 13 65 36 95 53 30 16 62 35 70 42 8 7
20 14 25 16 19 7 170 92 175 99 3 3 20 12 38 19 17 8 32 17 32 22 0 5 9 9 19
9 11 0 21 4 23 8 4 9 167 102 179 102 5 0 9 4 9 10 0 6 9 6 23 1 12 -5 31 -5
42 -1 11 4 32 4 46 0 15 -4 32 -4 39 0 7 4 25 4 40 0 15 -4 33 -4 41 0 7 5 17
6 22 3 9 -5 81 -5 142 0 17 1 42 -1 58 -5 16 -4 27 -3 27 3 0 6 5 7 11 3 6 -3
35 -6 65 -5 30 1 64 2 77 2 12 1 33 1 47 0 14 -1 32 -1 40 -1 8 0 40 1 70 0
30 0 69 1 85 3 17 1 42 -1 58 -5 17 -4 27 -3 27 4 0 7 4 7 13 -1 8 -6 16 -9
18 -7 2 2 47 7 99 10 112 7 159 13 260 32 87 17 231 59 277 80 17 8 35 14 39
14 10 0 254 120 269 132 17 14 86 58 90 58 5 0 39 27 65 51 10 9 22 18 28 20
34 13 229 209 312 315 96 123 247 409 276 524 2 8 13 47 24 85 11 39 23 84 26
100 3 17 9 46 14 65 30 122 34 504 5 610 -2 8 -6 32 -10 54 -3 21 -7 42 -10
46 -2 3 -7 22 -10 41 -19 108 -169 466 -224 531 -6 7 -28 38 -48 68 -80 121
-226 277 -349 376 -221 176 -562 328 -829 369 -22 3 -53 8 -70 10 -28 5 -216
16 -242 15 -7 0 -21 0 -30 0 -10 0 -29 0 -43 -1 -14 0 -31 0 -37 0 -7 0 -39 1
-70 0 -32 0 -67 1 -78 1 -11 1 -26 1 -32 1 -85 -3 -112 -3 -120 2 -5 3 -15 2
-23 -3 -7 -4 -24 -4 -36 0 -14 6 -26 5 -29 0 -3 -5 -15 -6 -28 -1 -12 5 -31 5
-42 1 -11 -4 -24 -5 -29 -2 -4 2 -34 4 -65 3 -31 -1 -65 -1 -76 -1 -11 1 -26
1 -32 1 -7 0 -35 -1 -63 -1 -27 0 -57 0 -65 0 -8 0 -22 0 -30 0 -8 0 -22 0
-30 0 -8 0 -23 0 -32 0 -10 0 -29 0 -43 -1 -14 0 -31 0 -37 0 -7 0 -39 1 -70
0 -32 0 -67 1 -78 1 -11 1 -26 1 -32 1 -85 -3 -112 -3 -120 2 -5 3 -15 2 -23
-3 -7 -4 -24 -4 -36 0 -14 6 -26 5 -29 0 -3 -5 -15 -6 -28 -1 -12 5 -31 5 -42
1 -11 -4 -24 -5 -29 -2 -4 2 -34 4 -65 3 -31 -1 -65 -1 -76 -1 -11 1 -26 1
-32 1 -7 0 -35 -1 -63 -1 -27 0 -57 0 -65 0 -8 0 -22 0 -30 0 -8 0 -22 0 -30
0 -8 0 -23 0 -32 0 -10 0 -29 0 -43 -1 -14 0 -29 -1 -35 0 -64 3 -127 3 -131
-2 -3 -3 -19 -1 -35 3 -16 5 -31 5 -34 1 -4 -8 -58 -6 -82 4 -7 2 -15 0 -18
-5 -4 -7 -13 -7 -24 0 -10 5 -21 6 -25 3 -3 -4 -6 49 -6 118 0 68 0 212 0 319
0 288 0 354 -3 357 -2 1 -12 -3 -23 -11z"/>
</g>
</svg>
